<?xml version="1.0" ?><svg width="40" height="40" style="enable-background:new 0 0 512 512;" version="1.1" viewBox="0 0 512 512" xml:space="preserve" xmlns="http://www.w3.org/2000/svg" xmlns:xlink="http://www.w3.org/1999/xlink"><style type="text/css">
	.st0{stroke-width:20;stroke-miterlimit:10;}
</style><g id="Edges"/><g id="Background_1_"><path class="st0" d="M492.3,268.5C486,391.3,382.4,493,255.8,493.1C129,493.2,25.1,391.5,18.8,268.5C12.1,136.5,119.9,19.4,255.6,19.4C391.3,19.4,499.1,136.5,492.3,268.5z" fill="none" stroke="white"/></g><g id="Symbol"><g><path class="st1" d="M255.4,136.6c37.7,0,42.2,0.1,57.1,0.8c13.8,0.6,21.2,3,26.2,4.9c6.6,2.6,11.3,5.7,16.2,10.7c4.9,5,8,9.8,10.6,16.5c1.9,5.1,4.2,12.7,4.9,26.7c0.7,15.2,0.8,19.7,0.8,58.1s-0.1,42.9-0.8,58.1c-0.6,14-2.9,21.6-4.9,26.7c-2.6,6.7-5.6,11.5-10.6,16.5c-4.9,5-9.6,8.1-16.2,10.7c-5,2-12.5,4.3-26.2,4.9c-14.9,0.7-19.4,0.8-57.1,0.8s-42.2-0.1-57.1-0.8c-13.8-0.6-21.2-3-26.2-4.9c-6.6-2.6-11.3-5.7-16.2-10.7c-4.9-5-8-9.8-10.6-16.5c-1.9-5.1-4.2-12.7-4.9-26.7c-0.7-15.2-0.8-19.7-0.8-58.1s0.1-42.9,0.8-58.1c0.6-14,2.9-21.6,4.9-26.7c2.6-6.7,5.6-11.5,10.6-16.5c4.9-5,9.6-8.1,16.2-10.7c5-2,12.5-4.3,26.2-4.9C213.2,136.8,217.6,136.6,255.4,136.6 M255.4,110.8c-38.4,0-43.2,0.2-58.2,0.9c-15,0.7-25.3,3.1-34.3,6.7c-9.3,3.7-17.2,8.6-25,16.6c-7.9,8-12.7,16-16.3,25.5c-3.5,9.1-5.9,19.6-6.6,34.9c-0.7,15.3-0.8,20.2-0.8,59.2c0,39,0.2,43.9,0.8,59.2c0.7,15.3,3.1,25.7,6.6,34.9c3.6,9.4,8.4,17.5,16.3,25.5c7.9,8,15.7,12.9,25,16.6c9,3.6,19.3,6,34.3,6.7c15.1,0.7,19.9,0.9,58.2,0.9s43.2-0.2,58.2-0.9c15-0.7,25.3-3.1,34.3-6.7c9.3-3.7,17.2-8.6,25-16.6c7.9-8,12.7-16,16.3-25.5c3.5-9.1,5.9-19.6,6.6-34.9c0.7-15.3,0.8-20.2,0.8-59.2s-0.2-43.9-0.8-59.2c-0.7-15.3-3.1-25.7-6.6-34.9c-3.6-9.4-8.4-17.5-16.3-25.5c-7.9-8-15.7-12.9-25-16.6c-9-3.6-19.3-6-34.3-6.7C298.5,110.9,293.7,110.8,255.4,110.8L255.4,110.8z" fill="white"/><path class="st1" d="M255.4,180.7c-40.1,0-72.5,33-72.5,73.8s32.5,73.8,72.5,73.8s72.5-33,72.5-73.8S295.4,180.7,255.4,180.7zM255.4,302.4c-26,0-47.1-21.4-47.1-47.9s21.1-47.9,47.1-47.9s47.1,21.4,47.1,47.9S281.4,302.4,255.4,302.4z" fill="white"/><ellipse class="st1" cx="330.8" cy="177.7" rx="16.9" ry="17.2"/></g></g></svg>